<svg width="395" height="370" viewBox="0 0 395 370" fill="none" xmlns="http://www.w3.org/2000/svg">
<path fill-rule="evenodd" clip-rule="evenodd" d="M156.704 155.407H111.896C105.321 155.357 98.9935 157.755 94.3059 162.073C89.6182 166.392 86.9542 172.278 86.9 178.436V265.593C87.0217 278.413 98.2103 288.715 111.896 288.607H156.704C163.279 288.659 169.607 286.262 174.295 281.943C178.982 277.624 181.646 271.738 181.7 265.579V178.436C181.646 172.278 178.982 166.392 174.295 162.073C169.607 157.755 163.279 155.357 156.704 155.407Z" stroke="#304284" stroke-width="48" stroke-linecap="round" stroke-linejoin="round"/>
<path fill-rule="evenodd" clip-rule="evenodd" d="M156.704 66.6089H111.896C98.4855 66.2605 87.3043 76.1448 86.9 88.7053V103.712C87.3043 116.273 98.4855 126.157 111.896 125.809H156.704C170.114 126.157 181.296 116.273 181.7 103.712V88.7053C181.296 76.1448 170.114 66.2605 156.704 66.6089Z" stroke="#304284" stroke-width="48" stroke-linecap="round" stroke-linejoin="round"/>
<path fill-rule="evenodd" clip-rule="evenodd" d="M238.296 199.81H283.089C289.666 199.865 295.997 197.469 300.688 193.15C305.379 188.83 308.046 182.943 308.1 176.782V89.6386C308.046 83.48 305.382 77.5937 300.695 73.275C296.007 68.9562 289.679 66.5586 283.104 66.6098H238.296C231.721 66.5586 225.393 68.9562 220.705 73.275C216.018 77.5937 213.354 83.48 213.3 89.6386V176.782C213.354 182.94 216.018 188.826 220.705 193.144C225.393 197.463 231.721 199.861 238.296 199.81Z" stroke="#304284" stroke-width="48" stroke-linecap="round" stroke-linejoin="round"/>
<path fill-rule="evenodd" clip-rule="evenodd" d="M238.296 288.609H283.089C296.504 288.966 307.696 279.079 308.1 266.512V251.505C307.696 238.945 296.514 229.061 283.104 229.409H238.296C224.886 229.061 213.704 238.945 213.3 251.505V266.498C213.695 279.064 224.88 288.957 238.296 288.609Z" stroke="#304284" stroke-width="48" stroke-linecap="round" stroke-linejoin="round"/>
</svg>
