<svg width="43" height="50" viewBox="0 0 43 50" fill="none" xmlns="http://www.w3.org/2000/svg">
<path d="M41.0464 43.1818H13.6916C12.6146 43.1818 11.737 42.1636 11.737 40.9102V38.6386C11.737 38.2227 11.9335 37.8409 12.2472 37.6409L21.8108 31.5761C18.6073 27.5477 18.5721 21.8489 18.5721 21.5852L18.578 14.775C18.578 14.7114 18.5828 14.6489 18.5916 14.5875C19.265 9.94432 23.6735 6.82614 27.3685 6.82614H27.3724C31.0655 6.82614 35.473 9.94205 36.1483 14.5841C36.1571 14.6466 36.162 14.7102 36.162 14.7727L36.165 21.5841C36.165 21.8466 36.1298 27.5455 32.9273 31.5739L42.4908 37.6386C42.8045 37.8386 43 38.2205 43 38.6364V40.9102C43 42.1636 42.1234 43.1818 41.0464 43.1818ZM30.8095 32.8182C30.5232 32.6364 30.3336 32.3011 30.3033 31.9239C30.274 31.5466 30.4088 31.1773 30.661 30.9386C34.1762 27.625 34.2114 21.6455 34.2114 21.5852L34.2075 14.8739C33.6582 11.4648 30.1811 9.09659 27.3685 9.09659C24.555 9.09773 21.0798 11.467 20.5325 14.8761L20.5266 21.5875C20.5266 21.6455 20.5804 27.6443 24.0761 30.9409C24.3292 31.1795 24.4641 31.5489 24.4338 31.9261C24.4045 32.3034 24.2149 32.6386 23.9285 32.8205L13.6916 39.3136V40.9102H41.0445L41.0455 39.3125L30.8095 32.8182ZM18.2232 9.68182C17.3603 9.29205 16.4651 9.0875 15.6315 9.0875C12.8179 9.08864 9.34175 11.458 8.79448 14.867L8.78861 21.5784C8.78861 21.6375 8.84139 27.6352 12.3381 30.9318C12.5912 31.1705 12.726 31.5398 12.6967 31.917C12.6664 32.2943 12.4768 32.6295 12.1905 32.8114L1.95357 39.3045V40.9011H8.7935C9.33295 40.9011 9.7698 41.4102 9.7698 42.0375C9.7698 42.6648 9.33295 43.1739 8.7935 43.1739H1.95357C0.876614 43.1739 0 42.1545 0 40.9011V38.6295C0 38.2148 0.195455 37.8318 0.509159 37.633L10.0728 31.567C6.87023 27.5386 6.83407 21.8398 6.83407 21.5773L6.83993 14.7659C6.83993 14.7034 6.84482 14.6398 6.85361 14.5784C7.52695 9.93637 11.9354 6.81818 15.6315 6.81818C15.6354 6.81818 15.6413 6.81818 15.6461 6.81818C16.7123 6.81818 17.847 7.07614 18.9288 7.56364C19.4331 7.79091 19.6823 8.44887 19.4878 9.03296C19.2914 9.61818 18.7226 9.90909 18.2232 9.68182Z" fill="#304284"/>
</svg>
