<svg width="299" height="182" viewBox="0 0 299 182" fill="none" xmlns="http://www.w3.org/2000/svg">
<path d="M226.809 70.5238H176.309V66.6111C176.309 63.5678 173.103 61.099 169.147 61.099H159.472V38.9884C159.472 26.1869 173.015 15.7689 189.657 15.7689H248.771C254.286 15.7689 258.749 12.3324 258.749 8.09394C258.749 3.85551 254.286 0.418997 248.771 0.418997H189.657C162.005 0.418997 139.517 17.7211 139.517 38.9884V61.099H129.842C125.886 61.099 122.68 63.5678 122.68 66.6111V70.5238H72.18C32.3198 70.5238 0 95.3881 0 126.05C0 156.72 32.3198 181.581 72.18 181.581C99.9979 181.581 124.103 169.461 136.156 151.732H162.844C174.896 169.461 199.002 181.581 226.81 181.581C266.681 181.581 299.001 156.72 299.001 126.05C299 95.3881 266.68 70.5238 226.809 70.5238ZM107.003 131.702C107.003 133.883 104.703 135.648 101.878 135.648H84.6521V148.896C84.6521 151.073 82.3523 152.838 79.5268 152.838H64.8332C62.0077 152.838 59.7085 151.073 59.7085 148.896V135.648H42.4814C39.656 135.648 37.3561 133.883 37.3561 131.702V120.407C37.3561 118.226 39.656 116.461 42.4814 116.461H59.7085V103.214C59.7085 101.033 62.0071 99.2674 64.8332 99.2674H79.5268C82.3523 99.2674 84.6521 101.033 84.6521 103.214V116.461H101.878C104.703 116.461 107.003 118.226 107.003 120.407V131.702ZM201.856 134.674C195.669 134.674 190.652 130.81 190.652 126.047C190.652 121.291 195.669 117.427 201.856 117.427C208.054 117.427 213.072 121.291 213.072 126.047C213.072 130.81 208.053 134.674 201.856 134.674ZM224.969 152.452C218.781 152.452 213.763 148.592 213.763 143.828C213.763 139.065 218.781 135.206 224.969 135.206C231.165 135.206 236.183 139.065 236.183 143.828C236.183 148.592 231.165 152.452 224.969 152.452ZM224.969 116.895C218.781 116.895 213.763 113.035 213.763 108.272C213.763 103.509 218.781 99.6491 224.969 99.6491C231.165 99.6491 236.183 103.509 236.183 108.272C236.183 113.035 231.165 116.895 224.969 116.895ZM248.08 134.674C241.893 134.674 236.875 130.81 236.875 126.047C236.875 121.291 241.893 117.427 248.08 117.427C254.278 117.427 259.295 121.291 259.295 126.047C259.295 130.81 254.278 134.674 248.08 134.674Z" fill="#304284"/>
</svg>
