<svg width="179" height="172" viewBox="0 0 179 172" fill="none" xmlns="http://www.w3.org/2000/svg">
<path d="M168.282 68.9191H151.823C151.241 68.9191 151.291 68.6762 151.31 68.5555C152.308 62.0919 149.458 58.1608 146.47 54.0475C144.208 50.9352 141.87 47.7163 140.797 42.7623C140.036 39.2496 145.482 22.4283 149.401 12.1655C150.805 8.48945 148.548 4.65242 144.371 3.6116L130.923 0.26372C130.22 0.0887145 129.489 0 128.752 0C125.203 0 121.932 2.07437 120.797 5.04364C116.875 15.3045 109.636 31.6784 106.553 34.2365C102.209 37.8418 98.0315 39.4377 93.9908 40.9813C87.4185 43.4919 81.2108 45.8635 77.5514 55.4364L72.7761 67.9311C72.7761 67.9311 72.3869 68.9191 71.2602 68.9191C56.332 68.9191 10.7286 68.9191 10.7286 68.9191C4.81881 68.9191 0.0110931 72.7997 0.0110931 77.5699C0.0110931 81.6431 2.78882 86.7415 5.02061 90.8383C6.01999 92.6727 7.05361 94.5697 7.2536 95.3972L23.4749 162.503C24.7638 167.828 31.0387 172 37.7605 172H140.942C147.657 172 153.952 167.839 155.277 162.526L172.01 95.4035C172.216 94.5726 173.192 92.7164 174.135 90.9207C176.302 86.7953 179 81.661 179 77.5695C179 72.7997 174.192 68.9191 168.282 68.9191ZM124.475 13.2248C125.979 9.59911 126.792 7.44572 127.11 6.61578C127.459 5.70245 128.368 5.20846 128.976 5.35971L142.423 8.7076C143.02 8.85642 143.432 9.69509 143.088 10.5944C142.771 11.4243 141.931 13.5976 140.645 17.2775C140.645 17.2775 140.423 17.9194 139.809 17.7599C136.058 16.7855 129.802 15.1901 124.823 14.0276C124.224 13.8879 124.475 13.2248 124.475 13.2248ZM79.7117 67.8778L83.8654 57.008C86.666 49.6787 90.7049 48.1361 96.8165 45.8014C101.174 44.1367 106.113 42.2499 111.29 37.9548C113.665 35.9832 116.522 30.958 119.354 24.9661C119.354 24.9661 119.667 24.3558 120.169 24.477C125.998 25.8751 131.901 27.3003 136.233 28.4764C136.966 28.6756 136.688 29.2821 136.688 29.2821C134.848 35.5217 133.702 40.974 134.289 43.6815C135.568 49.5841 138.331 53.3882 140.77 56.7453C143.604 60.6453 145.629 63.4575 144.653 68.4706C144.623 68.6185 144.517 68.9196 143.815 68.9196H139.261C138.61 68.9196 138.54 68.5802 138.532 68.4144C138.219 62.3372 132.201 59.8188 130.499 51.6275C130.274 50.5421 129.918 50.99 119.503 48.236C110.222 45.7815 109.89 45.4684 108.873 46.243C99.4879 53.3921 91.6196 50.8116 87.556 61.4501L85.0149 68.0998C85.0149 68.0998 84.7825 68.9196 84.1315 68.9196C83.1645 68.9196 81.3129 68.9196 80.2631 68.9196C79.2877 68.9191 79.7117 67.8778 79.7117 67.8778ZM164.973 96.597L148.799 161.474C148.111 164.241 144.438 166.667 140.942 166.667H37.7599C34.2723 166.667 30.6273 164.244 29.9589 161.481L14.2595 96.5321C14.2595 96.5321 14.164 96.0764 14.8901 96.0764C50.8528 96.0764 155.695 96.0764 164.511 96.0764C165.13 96.0764 164.973 96.597 164.973 96.597ZM168.052 88.8391C167.534 89.8271 167.329 90.1921 166.931 91.0051C166.931 91.0051 166.725 91.5335 166.107 91.5335C157.406 91.5335 50.1237 91.5335 13.3628 91.5335C12.5874 91.5335 12.4355 91.2523 12.4355 91.2523C12.0055 90.3972 11.6373 89.7364 11.0685 88.6917C9.1905 85.2445 6.61818 80.5227 6.61818 77.5704C6.61818 75.7409 8.46199 74.2521 10.7292 74.2521H168.282C170.549 74.2521 172.394 75.7404 172.394 77.5704C172.394 80.577 169.884 85.3526 168.052 88.8391Z" fill="#304284"/>
<path d="M91.9145 106.076C76.2878 106.076 63.5751 116.338 63.5751 128.951C63.5751 141.564 76.2878 151.826 91.9145 151.826C107.541 151.826 120.253 141.564 120.253 128.951C120.253 116.338 107.541 106.076 91.9145 106.076Z" fill="#304284"/>
</svg>
