<svg width="190" height="142" viewBox="0 0 190 142" fill="none" xmlns="http://www.w3.org/2000/svg">
<path d="M156.196 98.5894C160.114 94.9647 162.264 90.4512 162.292 85.7916C162.292 80.2995 159.372 75.0322 154.176 71.1486C148.98 67.2651 141.932 65.0833 134.583 65.0833C127.235 65.0833 120.187 67.2651 114.991 71.1486C109.794 75.0322 106.875 80.2995 106.875 85.7916C106.903 90.4512 109.053 94.9647 112.971 98.5894C105.709 101.375 99.5224 105.504 95 110.582C90.4776 105.504 84.2909 101.375 77.0291 98.5894C80.947 94.9647 83.0969 90.4512 83.125 85.7916C83.125 80.2995 80.2057 75.0322 75.0094 71.1486C69.8131 67.2651 62.7654 65.0833 55.4167 65.0833C48.0679 65.0833 41.0202 67.2651 35.8239 71.1486C30.6276 75.0322 27.7083 80.2995 27.7083 85.7916C27.7364 90.4512 29.8863 94.9647 33.8042 98.5894C26.0187 101.562 19.4821 106.084 14.9145 111.655C10.3468 117.227 7.92533 123.632 7.91666 130.167C7.91666 131.736 8.75073 133.241 10.2354 134.35C11.7201 135.46 13.7337 136.083 15.8333 136.083H174.167C176.266 136.083 178.28 135.46 179.765 134.35C181.249 133.241 182.083 131.736 182.083 130.167C182.075 123.632 179.653 117.227 175.085 111.655C170.518 106.084 163.981 101.562 156.196 98.5894ZM55.4167 76.9166C57.7653 76.9166 60.0612 77.4372 62.014 78.4124C63.9669 79.3876 65.4889 80.7736 66.3877 82.3953C67.2865 84.017 67.5217 85.8015 67.0635 87.5231C66.6053 89.2447 65.4743 90.826 63.8135 92.0672C62.1528 93.3084 60.0369 94.1537 57.7333 94.4961C55.4298 94.8386 53.0422 94.6628 50.8723 93.9911C48.7024 93.3194 46.8478 92.1818 45.543 90.7223C44.2381 89.2628 43.5417 87.547 43.5417 85.7916C43.5417 83.4379 44.7928 81.1805 47.0198 79.5161C49.2468 77.8517 52.2672 76.9166 55.4167 76.9166ZM24.7475 124.25C26.497 119.164 30.4599 114.658 36.0121 111.441C41.5644 108.223 48.3908 106.477 55.4167 106.477C62.4425 106.477 69.2689 108.223 74.8212 111.441C80.3735 114.658 84.3363 119.164 86.0858 124.25H24.7475ZM134.583 76.9166C136.932 76.9166 139.228 77.4372 141.181 78.4124C143.134 79.3876 144.656 80.7736 145.554 82.3953C146.453 84.017 146.688 85.8015 146.23 87.5231C145.772 89.2447 144.641 90.826 142.98 92.0672C141.319 93.3084 139.204 94.1537 136.9 94.4961C134.596 94.8386 132.209 94.6628 130.039 93.9911C127.869 93.3194 126.014 92.1818 124.71 90.7223C123.405 89.2628 122.708 87.547 122.708 85.7916C122.708 83.4379 123.959 81.1805 126.186 79.5161C128.413 77.8517 131.434 76.9166 134.583 76.9166ZM103.922 124.25C105.677 119.17 109.641 114.669 115.191 111.456C120.741 108.243 127.563 106.5 134.583 106.5C141.604 106.5 148.425 108.243 153.975 111.456C159.525 114.669 163.49 119.17 165.245 124.25H103.922ZM57 49.7C55.7402 50.9553 55.1993 52.5333 55.4962 54.0867C55.7932 55.6402 56.9036 57.0418 58.5833 57.9833C60.263 58.9248 62.3744 59.3291 64.4529 59.1072C66.5314 58.8853 68.4069 58.0553 69.6667 56.8C72.6163 53.8607 76.4411 51.475 80.8382 49.8319C85.2353 48.1887 90.0839 47.3333 95 47.3333C99.9161 47.3333 104.765 48.1887 109.162 49.8319C113.559 51.475 117.384 53.8607 120.333 56.8C120.957 57.4216 121.739 57.9453 122.633 58.3411C123.528 58.737 124.518 58.9973 125.547 59.1072C126.576 59.2171 127.624 59.1744 128.631 58.9815C129.639 58.7887 130.585 58.4495 131.417 57.9833C132.248 57.5171 132.949 56.9331 133.479 56.2645C134.008 55.5959 134.357 54.8559 134.504 54.0867C134.651 53.3175 134.594 52.5343 134.336 51.7816C134.078 51.0289 133.624 50.3216 133 49.7C128.67 45.3802 123.079 41.8553 116.652 39.3932C120.549 35.7732 122.684 31.271 122.708 26.625C122.708 21.1328 119.789 15.8656 114.593 11.982C109.396 8.09842 102.349 5.91666 95 5.91666C87.6513 5.91666 80.6036 8.09842 75.4072 11.982C70.2109 15.8656 67.2917 21.1328 67.2917 26.625C67.3174 31.269 69.4528 35.7688 73.3479 39.3872C66.9193 41.85 61.3279 45.3772 57 49.7ZM95 17.75C97.3486 17.75 99.6445 18.2705 101.597 19.2457C103.55 20.2209 105.072 21.607 105.971 23.2287C106.87 24.8504 107.105 26.6348 106.647 28.3564C106.189 30.078 105.058 31.6594 103.397 32.9006C101.736 34.1418 99.6202 34.987 97.3167 35.3295C95.0132 35.6719 92.6255 35.4961 90.4556 34.8244C88.2857 34.1527 86.4311 33.0152 85.1263 31.5557C83.8214 30.0962 83.125 28.3803 83.125 26.625C83.125 24.2712 84.3761 22.0138 86.6031 20.3494C88.8301 18.685 91.8505 17.75 95 17.75Z" fill="#304284"/>
</svg>
