<svg width="11" height="10" viewBox="0 0 11 10" fill="none" xmlns="http://www.w3.org/2000/svg">
<path d="M1.83333 3.7639C1.83333 2.46099 1.83333 1.80953 2.27267 1.40476C2.71201 1 3.41912 1 4.83333 1H6.83333C8.24755 1 8.95465 1 9.39399 1.40476C9.83333 1.80953 9.83333 2.46099 9.83333 3.7639V6.90904C9.83333 8.1451 9.83333 8.76313 9.41119 8.95216C8.98904 9.14119 8.46156 8.75936 7.4066 7.9957L7.06897 7.7513C6.47579 7.3219 6.1792 7.1072 5.83333 7.1072C5.48747 7.1072 5.19088 7.3219 4.59769 7.7513L4.26006 7.9957C3.20511 8.75936 2.67763 9.14119 2.25548 8.95216C1.83333 8.76313 1.83333 8.1451 1.83333 6.90904V3.7639Z" stroke="#16334B" stroke-width="2"/>
</svg>
