<svg width="265" height="235" viewBox="0 0 265 235" fill="none" xmlns="http://www.w3.org/2000/svg">
<path d="M70.9391 136.903C70.9391 140.269 67.449 143.058 63.024 143.058C60.8427 143.058 58.8483 142.385 57.4149 141.279C55.9814 140.173 55.1089 138.634 55.1089 136.951C55.1089 133.585 58.599 130.796 63.024 130.796C67.3243 130.796 70.9391 133.537 70.9391 136.903ZM76.2366 167.438C73.1204 169.842 73.1828 173.689 76.2366 176.094C79.3528 178.45 84.401 178.45 87.4549 176.046C90.5711 173.641 90.5087 169.746 87.3926 167.39C84.3387 165.034 79.2911 165.034 76.2366 167.438ZM126.906 93.5287C131.269 93.5287 134.884 90.7878 134.884 87.3736C134.884 83.9595 131.331 81.2185 126.906 81.2185C122.481 81.2185 118.929 83.9595 118.929 87.3736C118.929 89.0567 119.801 90.5955 121.235 91.7014C122.731 92.8555 124.725 93.5287 126.906 93.5287ZM75.925 106.368C79.0412 108.724 84.0894 108.724 87.1433 106.32L87.2056 106.272C87.2679 106.224 87.2679 106.224 87.3302 106.176C90.4464 103.771 90.4464 99.9243 87.3302 97.5199C84.2141 95.1156 79.1658 95.1156 76.112 97.5199C76.0497 97.568 76.0497 97.568 75.9873 97.6161C75.925 97.6642 75.925 97.6642 75.8627 97.7123C72.8088 100.069 72.8088 103.964 75.925 106.368ZM127.093 179.989C122.668 179.989 119.178 182.73 119.178 186.144C119.178 187.827 120.051 189.366 121.484 190.472C122.918 191.578 124.912 192.251 127.156 192.251C131.518 192.251 135.071 189.51 135.071 186.096C135.071 182.73 131.518 179.989 127.093 179.989ZM166.668 167.246C163.552 169.65 163.552 173.545 166.668 175.901C169.784 178.306 174.833 178.306 177.887 175.901C181.003 173.497 180.94 169.602 177.887 167.198C174.77 164.841 169.723 164.841 166.668 167.246ZM190.913 130.556C186.488 130.556 182.935 133.296 182.935 136.711C182.935 138.394 183.808 139.932 185.241 141.038C186.675 142.144 188.669 142.866 190.85 142.818C195.275 142.818 198.766 140.077 198.828 136.663C198.89 133.297 195.337 130.556 190.913 130.556ZM127.28 235C57.1662 235 0.0777588 190.953 0.0777588 136.855C0.0777588 86.6523 49.2511 45.1535 112.385 39.4311V24.5723H104.47C100.481 24.5723 97.3026 22.0718 97.3026 19.0424V5.52998C97.3026 2.45242 100.543 0 104.47 0H150.091C154.079 0 157.258 2.50051 157.258 5.52998V19.0424C157.258 22.1199 154.017 24.5723 150.091 24.5723H142.176V39.3831C166.17 41.547 188.108 48.9042 206.12 59.9161L216.465 51.9337L215.531 51.2124C212.726 49.0485 212.726 45.5382 215.531 43.3743L229.74 32.4105C232.545 30.2466 237.095 30.2466 239.899 32.4105L262.897 50.1545C265.701 52.3184 265.701 55.8287 262.897 57.9926L248.687 68.9564C245.882 71.1203 241.333 71.1203 238.528 68.9564L237.593 68.2351L227.247 76.2175C244.324 92.9036 254.483 113.966 254.483 136.807C254.483 190.953 197.394 235 127.28 235ZM224.941 136.855C224.941 95.308 181.127 61.503 127.28 61.503C73.4321 61.503 29.6185 95.308 29.6185 136.855C29.6185 178.402 73.3697 212.207 127.28 212.207C181.128 212.207 224.941 178.402 224.941 136.855ZM178.386 97.0391C181.315 99.2992 181.502 102.954 178.822 105.358L146.414 134.643C147.224 139.211 145.417 143.972 140.867 147.482C133.201 153.397 120.736 153.397 113.008 147.482C105.342 141.567 105.342 131.95 113.008 125.987C117.558 122.477 123.728 121.082 129.649 121.708L167.604 96.7025C170.782 94.6347 175.456 94.779 178.386 97.0391ZM132.578 132.431C129.462 130.027 124.413 130.027 121.36 132.431C118.243 134.835 118.243 138.73 121.36 141.087C124.476 143.491 129.524 143.491 132.578 141.087C135.694 138.682 135.694 134.835 132.578 132.431Z" fill="#162A34" fill-opacity="0.733333"/>
</svg>
