<svg width="3" height="3" viewBox="0 0 3 3" fill="none" xmlns="http://www.w3.org/2000/svg">
<g clip-path="url(#clip0_1_2)">
<path fill-rule="evenodd" clip-rule="evenodd" d="M1.5 0.5C0.947715 0.5 0.5 0.947715 0.5 1.5C0.5 1.76239 0.601008 2.00123 0.766499 2.17972C0.772747 2.15905 0.781057 2.13874 0.791897 2.11936C0.828647 2.05365 0.875006 1.9929 0.930011 1.93917C0.985213 1.88526 1.04749 1.84001 1.11467 1.80426C1.01236 1.70633 0.948395 1.56946 0.948395 1.41667C0.948395 1.11475 1.19815 0.875 1.5 0.875C1.80185 0.875 2.0516 1.11475 2.0516 1.41667C2.0516 1.56946 1.98764 1.70633 1.88533 1.80426C1.95251 1.84001 2.01479 1.88526 2.06999 1.93917C2.12499 1.9929 2.17135 2.05365 2.2081 2.11936C2.21894 2.13874 2.22725 2.15905 2.2335 2.17972C2.39899 2.00123 2.5 1.76239 2.5 1.5C2.5 0.947715 2.05228 0.5 1.5 0.5ZM1.99264 2.37046C1.99749 2.34549 1.99993 2.32205 2 2.30129C2.00012 2.26698 1.99383 2.2484 1.98991 2.24139C1.96484 2.19657 1.93313 2.15496 1.89531 2.11802C1.79096 2.0161 1.64881 1.95833 1.5 1.95833C1.35119 1.95833 1.20904 2.0161 1.10469 2.11802C1.06687 2.15496 1.03516 2.19657 1.01009 2.24139C1.00617 2.2484 0.999882 2.26698 1 2.30129C1.00007 2.32205 1.00251 2.34549 1.00736 2.37046C1.15269 2.45291 1.32069 2.5 1.5 2.5C1.67931 2.5 1.84731 2.45291 1.99264 2.37046ZM1.5 1.70833C1.66937 1.70833 1.8016 1.57499 1.8016 1.41667C1.8016 1.25834 1.66937 1.125 1.5 1.125C1.33063 1.125 1.1984 1.25834 1.1984 1.41667C1.1984 1.57499 1.33063 1.70833 1.5 1.70833ZM0.25 1.5C0.25 0.809644 0.809644 0.25 1.5 0.25C2.19036 0.25 2.75 0.809644 2.75 1.5C2.75 1.94466 2.51773 2.33498 2.1685 2.5564C1.97509 2.67902 1.74564 2.75 1.5 2.75C1.25436 2.75 1.02491 2.67902 0.831502 2.5564C0.482267 2.33498 0.25 1.94466 0.25 1.5Z" fill="#374E69"/>
</g>
<defs>
<clipPath id="clip0_1_2">
<rect width="3" height="3" fill="white"/>
</clipPath>
</defs>
</svg>
