<svg width="20" height="19" viewBox="0 0 20 19" fill="none" xmlns="http://www.w3.org/2000/svg">
<g clip-path="url(#clip0_6_23)">
<path d="M3.75 17.0208L7.08333 13.8542M8.75 13.8542L12.0833 17.0208M7.91667 13.8542L7.91667 17.8125" stroke="#304284" stroke-width="1.5" stroke-linecap="round" stroke-linejoin="round"/>
<path d="M1.66667 9.40104C1.66667 7.76831 1.66667 6.95195 2.52094 6.44472C3.37521 5.9375 4.75014 5.9375 7.5 5.9375H8.33333C11.0832 5.9375 12.4581 5.9375 13.3124 6.44472C14.1667 6.95195 14.1667 7.76831 14.1667 9.40104V10.3906C14.1667 12.0234 14.1667 12.8397 13.3124 13.3469C12.4581 13.8542 11.0832 13.8542 8.33333 13.8542H7.5C4.75014 13.8542 3.37521 13.8542 2.52094 13.3469C1.66667 12.8397 1.66667 12.0234 1.66667 10.3906V9.40104Z" stroke="#304284" stroke-width="1.5"/>
<path d="M14.1667 8.11421L14.2716 8.0544C16.0347 7.04928 16.9163 6.54672 17.6248 6.78938C18.3333 7.03203 18.3333 7.83652 18.3333 9.4455V10.3459C18.3333 11.9549 18.3333 12.7593 17.6248 13.002C16.9163 13.2447 16.0347 12.7421 14.2716 11.737L14.1667 11.6772" stroke="#304284" stroke-width="1.5" stroke-linecap="round"/>
<ellipse cx="10.4167" cy="3.95833" rx="2.08333" ry="1.97917" stroke="#304284" stroke-width="1.5"/>
<ellipse cx="5.83333" cy="3.5625" rx="2.5" ry="2.375" stroke="#304284" stroke-width="1.5"/>
</g>
<defs>
<clipPath id="clip0_6_23">
<rect width="20" height="19" fill="white"/>
</clipPath>
</defs>
</svg>
